<svg width="60" height="41" viewBox="0 0 60 41" fill="none" xmlns="http://www.w3.org/2000/svg">
<rect x="0.5" y="0.5" width="59" height="40" rx="5.5" fill="white" stroke="#D9D9D9"/>
<path d="M25.6202 27.1648V18.3495C25.6202 17.9638 25.6965 17.5819 25.8446 17.2257C25.9927 16.8694 26.2098 16.5457 26.4835 16.273C26.7572 16.0003 27.0821 15.7841 27.4397 15.6366C27.7973 15.4891 28.1805 15.4132 28.5675 15.4133H31.1764C31.9559 15.4149 32.7028 15.7246 33.2534 16.2744C33.804 16.8242 34.1132 17.5693 34.1132 18.346V20.2223C34.1132 21.0012 33.8027 21.7482 33.25 22.299C32.6973 22.8498 31.9476 23.1593 31.166 23.1593H27.4761" stroke="#C1C1EF" stroke-width="0.750585" stroke-linecap="round" stroke-linejoin="round"/>
<path d="M34.8455 15.4116H35.976C36.2968 15.4116 36.6045 15.5386 36.8314 15.7647C37.0582 15.9908 37.1857 16.2974 37.1857 16.6171V23.2035" stroke="#C1C1EF" stroke-width="0.750585" stroke-linecap="round" stroke-linejoin="round"/>
<path d="M36.9413 14.3916L36.4282 13.8795C36.3978 13.8493 36.3737 13.8134 36.3573 13.7739C36.3409 13.7345 36.3324 13.6921 36.3324 13.6494C36.3324 13.6066 36.3409 13.5643 36.3573 13.5248C36.3737 13.4853 36.3978 13.4495 36.4282 13.4193L36.9413 12.908C36.9716 12.8777 37.0076 12.8537 37.0472 12.8373C37.0868 12.8209 37.1293 12.8125 37.1722 12.8125C37.2151 12.8125 37.2576 12.8209 37.2972 12.8373C37.3368 12.8537 37.3728 12.8777 37.4031 12.908L37.917 13.4193C37.9474 13.4495 37.9715 13.4853 37.988 13.5248C38.0044 13.5643 38.0129 13.6066 38.0129 13.6494C38.0129 13.6921 38.0044 13.7345 37.988 13.7739C37.9715 13.8134 37.9474 13.8493 37.917 13.8795L37.4031 14.3916C37.3728 14.4219 37.3368 14.4459 37.2972 14.4623C37.2576 14.4787 37.2151 14.4871 37.1722 14.4871C37.1293 14.4871 37.0868 14.4787 37.0472 14.4623C37.0076 14.4459 36.9716 14.4219 36.9413 14.3916" fill="#32BCAD"/>
<path d="M39.3616 15.4065H40.4852C41.0631 15.4066 41.6174 15.6354 42.0262 16.0426L44.6543 18.6607C44.735 18.7415 44.8311 18.8057 44.9368 18.8494C45.0425 18.8932 45.1559 18.9157 45.2704 18.9157C45.3849 18.9157 45.4983 18.8932 45.604 18.8494C45.7097 18.8057 45.8057 18.7415 45.8865 18.6607L48.5077 16.0521C48.71 15.8504 48.9502 15.6904 49.2147 15.5813C49.4791 15.4721 49.7625 15.416 50.0487 15.416H50.9618" stroke="#C1C1EF" stroke-width="0.750585" stroke-linecap="round" stroke-linejoin="round"/>
<path d="M39.3616 23.1446H40.4852C41.0631 23.1445 41.6174 22.9157 42.0262 22.5085L44.6543 19.8913C44.735 19.8104 44.8311 19.7463 44.9368 19.7025C45.0425 19.6588 45.1559 19.6362 45.2704 19.6362C45.3849 19.6362 45.4983 19.6588 45.604 19.7025C45.7097 19.7463 45.8057 19.8104 45.8865 19.8913L48.5077 22.499C48.71 22.7007 48.9502 22.8607 49.2147 22.9698C49.4791 23.079 49.7625 23.1351 50.0487 23.1351H50.9618" stroke="#C1C1EF" stroke-width="0.750585" stroke-linecap="round" stroke-linejoin="round"/>
<path d="M18.9222 24.8172C18.6448 24.818 18.3699 24.764 18.1136 24.6582C17.8573 24.5524 17.6246 24.397 17.429 24.201L15.2731 22.0578C15.197 21.985 15.0956 21.9443 14.9901 21.9443C14.8845 21.9443 14.7831 21.985 14.707 22.0578L12.5433 24.2131C12.3477 24.4092 12.115 24.5646 11.8587 24.6703C11.6024 24.7761 11.3275 24.8301 11.0501 24.8293H10.6257L13.3556 27.5505C13.7652 27.9584 14.3206 28.1875 14.8996 28.1875C15.4787 28.1875 16.0341 27.9584 16.4437 27.5505L19.1813 24.8215L18.9222 24.8172Z" fill="#32BCAD"/>
<path d="M11.0501 17.2186C11.3275 17.218 11.6023 17.2721 11.8585 17.3779C12.1148 17.4836 12.3475 17.6389 12.5433 17.8348L14.707 19.991C14.7821 20.0656 14.8839 20.1076 14.99 20.1076C15.0961 20.1076 15.1979 20.0656 15.2731 19.991L17.429 17.8426C17.6247 17.6467 17.8574 17.4914 18.1137 17.3857C18.37 17.2799 18.6448 17.2258 18.9221 17.2264H19.183L16.4454 14.4983C16.2427 14.2961 16.002 14.1358 15.737 14.0263C15.4721 13.9169 15.1881 13.8606 14.9013 13.8606C14.6145 13.8606 14.3306 13.9169 14.0656 14.0263C13.8007 14.1358 13.56 14.2961 13.3573 14.4983L10.6274 17.2186H11.0501Z" fill="#32BCAD"/>
<path d="M21.4467 19.4832L19.7944 17.8366C19.757 17.8515 19.7172 17.8594 19.677 17.86H18.9247C18.5331 17.8616 18.158 18.0173 17.8811 18.2933L15.7218 20.4373C15.6258 20.5331 15.5118 20.6091 15.3863 20.6608C15.2608 20.7126 15.1263 20.7391 14.9904 20.7389C14.716 20.7394 14.4526 20.6312 14.2582 20.4382L12.0945 18.282C11.8176 18.0061 11.4425 17.8503 11.0509 17.8487H10.1265C10.0883 17.848 10.0506 17.8404 10.0152 17.8262L8.35414 19.4814C8.15128 19.6834 7.99035 19.9233 7.88055 20.1873C7.77075 20.4513 7.71423 20.7343 7.71423 21.0201C7.71423 21.3059 7.77075 21.5889 7.88055 21.8529C7.99035 22.1169 8.15128 22.3568 8.35414 22.5588L10.0152 24.2141C10.0506 24.1999 10.0883 24.1923 10.1265 24.1916H11.0509C11.4425 24.1897 11.8175 24.034 12.0945 23.7582L14.2582 21.6021C14.4554 21.4146 14.7174 21.31 14.99 21.31C15.2625 21.31 15.5246 21.4146 15.7218 21.6021L17.8777 23.7504C18.1547 24.0262 18.5297 24.1819 18.9212 24.1838H19.6735C19.7138 24.1842 19.7537 24.1924 19.7909 24.208L21.4432 22.5614C21.8525 22.1532 22.0824 21.5998 22.0824 21.0227C22.0824 20.4457 21.8525 19.8922 21.4432 19.484" fill="#32BCAD"/>
<path d="M27.8664 26.4152C27.7295 26.4213 27.5937 26.4419 27.4612 26.4767V27.014C27.5626 27.0495 27.6694 27.0674 27.7769 27.0669C28.0473 27.0669 28.1752 26.9759 28.1752 26.7384C28.1752 26.5157 28.0699 26.4152 27.8664 26.4152V26.4152ZM27.3699 27.4126V26.351H27.4447L27.4525 26.397C27.5904 26.3602 27.7317 26.3375 27.8743 26.3294C27.973 26.3226 28.071 26.3508 28.1508 26.4091C28.1945 26.4514 28.2281 26.503 28.2492 26.56C28.2703 26.617 28.2783 26.6779 28.2726 26.7384C28.2777 26.8059 28.2643 26.8734 28.2336 26.9338C28.2029 26.9941 28.1563 27.045 28.0986 27.0807C28.0011 27.1286 27.8934 27.1524 27.7847 27.1501C27.6747 27.1494 27.5655 27.1328 27.4603 27.1007V27.4126H27.3699Z" fill="#C1C1EF"/>
<path d="M28.9509 26.4126C28.6804 26.4126 28.5604 26.4992 28.5604 26.7341C28.5604 26.9689 28.6796 27.0669 28.9509 27.0669C29.2222 27.0669 29.3405 26.9802 29.3405 26.7462C29.3405 26.5122 29.2213 26.4126 28.9509 26.4126V26.4126ZM29.2987 27.0669C29.1946 27.131 29.0731 27.1613 28.9509 27.1535C28.8288 27.1608 28.7073 27.1306 28.603 27.0669C28.5543 27.0283 28.5161 26.9782 28.4918 26.9211C28.4675 26.8641 28.4579 26.8018 28.4639 26.7401C28.4583 26.6784 28.4681 26.6161 28.4924 26.559C28.5166 26.5019 28.5546 26.4516 28.603 26.4126C28.7072 26.3484 28.8287 26.3182 28.9509 26.3259C29.073 26.3183 29.1945 26.3486 29.2987 26.4126C29.3471 26.4512 29.3851 26.5012 29.4094 26.5581C29.4337 26.6149 29.4435 26.6769 29.4379 26.7384C29.4438 26.8004 29.4343 26.8628 29.41 26.9202C29.3857 26.9775 29.3475 27.0279 29.2987 27.0669" fill="#C1C1EF"/>
<path d="M30.578 27.1286L30.2771 26.4838H30.271L29.9745 27.1286H29.8971L29.5753 26.3486H29.6762L29.9432 27.0012H29.9493L30.2397 26.3486H30.3267L30.625 27.0012H30.6311L30.892 26.3486H30.9894L30.6685 27.1286H30.578Z" fill="#C1C1EF"/>
<path d="M31.5642 26.411C31.3138 26.411 31.2294 26.522 31.2164 26.6823H31.9173C31.9104 26.5046 31.819 26.411 31.5695 26.411H31.5642ZM31.5695 27.1503C31.4543 27.1625 31.3387 27.1316 31.2451 27.0636C31.2001 27.0226 31.1651 26.9719 31.1425 26.9155C31.1199 26.8591 31.1104 26.7983 31.1146 26.7377C31.1112 26.6748 31.1226 26.612 31.1478 26.5543C31.173 26.4965 31.2114 26.4454 31.2599 26.405C31.3509 26.3484 31.4571 26.3212 31.5642 26.327C31.6735 26.3202 31.7824 26.3465 31.8764 26.4024C31.9895 26.4778 32.0112 26.6103 32.0112 26.7611H31.2103C31.2103 26.9206 31.2659 27.0627 31.5686 27.0627C31.7042 27.0595 31.8392 27.0444 31.9721 27.0177V27.0991C31.837 27.1273 31.6996 27.1435 31.5616 27.1477" fill="#C1C1EF"/>
<path d="M32.2721 27.1285V26.3486H32.3469L32.3547 26.3945C32.4798 26.3536 32.6101 26.3308 32.7417 26.3269H32.753V26.4136H32.7313C32.6063 26.4163 32.4824 26.437 32.3634 26.4751V27.1268L32.2721 27.1285Z" fill="#C1C1EF"/>
<path d="M33.2826 26.4108C33.0322 26.4108 32.947 26.5218 32.9348 26.6821H33.6366C33.6288 26.5044 33.5375 26.4108 33.2887 26.4108H33.2826ZM33.2887 27.1501C33.1736 27.162 33.0581 27.1312 32.9644 27.0634C32.9213 27.0219 32.888 26.9713 32.867 26.9154C32.8459 26.8595 32.8376 26.7997 32.8426 26.7402C32.8392 26.6773 32.8506 26.6144 32.8758 26.5567C32.901 26.4989 32.9394 26.4478 32.9878 26.4074C33.0788 26.3508 33.1851 26.3236 33.2922 26.3294C33.4012 26.3227 33.5097 26.349 33.6035 26.4048C33.7166 26.4802 33.7383 26.6128 33.7383 26.7636H32.9383C32.9383 26.923 32.9939 27.0652 33.2966 27.0652C33.4321 27.0619 33.5671 27.0468 33.7001 27.0201V27.1016C33.5646 27.1296 33.427 27.1459 33.2887 27.1501" fill="#C1C1EF"/>
<path d="M34.7271 26.4647C34.626 26.4295 34.5195 26.4119 34.4123 26.4127C34.1419 26.4127 34.0132 26.5037 34.0132 26.7403C34.0132 26.9769 34.1184 27.0635 34.3227 27.0635C34.4592 27.0571 34.5947 27.0371 34.7271 27.0037V26.4647ZM34.7445 27.1285L34.7367 27.0817C34.5988 27.1187 34.4575 27.1416 34.3149 27.1502C34.216 27.1577 34.1176 27.1291 34.0384 27.0696C33.9944 27.0274 33.9605 26.9759 33.9393 26.9189C33.918 26.8619 33.91 26.8008 33.9158 26.7403C33.9106 26.6731 33.9241 26.6057 33.9548 26.5457C33.9855 26.4856 34.0321 26.4351 34.0897 26.3997C34.1875 26.3506 34.2959 26.3265 34.4054 26.3295C34.5147 26.3308 34.6233 26.3474 34.728 26.3789V26.0227H34.8193V27.1285H34.7445Z" fill="#C1C1EF"/>
<path d="M36.1586 26.4153C36.0217 26.4214 35.8858 26.442 35.7533 26.4768V27.0124C35.8545 27.0492 35.9614 27.0677 36.069 27.067C36.3395 27.067 36.4673 26.976 36.4673 26.7385C36.4673 26.5158 36.3621 26.4153 36.1586 26.4153V26.4153ZM36.3917 27.0809C36.2941 27.1288 36.1864 27.1526 36.0777 27.1502C35.9594 27.149 35.842 27.1291 35.7299 27.0913V27.1285H35.6672V26.0227H35.7542V26.391C35.8895 26.3566 36.0279 26.3351 36.1673 26.3269C36.266 26.3201 36.364 26.3483 36.4438 26.4066C36.4875 26.449 36.5211 26.5005 36.5422 26.5575C36.5633 26.6145 36.5713 26.6755 36.5656 26.7359C36.5708 26.8034 36.5573 26.871 36.5266 26.9313C36.496 26.9917 36.4493 27.0425 36.3917 27.0783" fill="#C1C1EF"/>
<path d="M36.6804 27.431V27.3444C36.7247 27.3444 36.7673 27.3522 36.796 27.3522C36.8489 27.3565 36.9017 27.343 36.9459 27.314C36.9902 27.2849 37.0235 27.2419 37.0404 27.1918L37.07 27.1303L36.6621 26.3503H36.7673L37.1152 27.0211H37.1213L37.4535 26.3503H37.557L37.1222 27.223C37.0413 27.3816 36.9552 27.4336 36.796 27.4336C36.7575 27.4354 36.7188 27.4345 36.6804 27.431Z" fill="#C1C1EF"/>
<path d="M38.8163 26.6847H38.5128V26.9577H38.8172C39.0259 26.9577 39.105 26.9343 39.105 26.8199C39.105 26.7055 38.9963 26.6847 38.8163 26.6847V26.6847ZM38.7606 26.2427H38.5128V26.52H38.7615C38.9676 26.52 39.0493 26.4958 39.0493 26.3797C39.0493 26.2635 38.9459 26.2427 38.7606 26.2427V26.2427ZM39.2302 27.0548C39.1189 27.125 38.9841 27.1284 38.7389 27.1284H38.2771V26.0737H38.7276C38.9398 26.0737 39.0693 26.0737 39.1772 26.1413C39.2131 26.1627 39.2424 26.1937 39.2616 26.2307C39.2808 26.2678 39.2892 26.3095 39.2859 26.3511C39.2886 26.4031 39.2735 26.4545 39.2432 26.497C39.2129 26.5394 39.1691 26.5705 39.1189 26.585V26.5911C39.2546 26.6214 39.3424 26.6908 39.3424 26.8407C39.3457 26.8833 39.3369 26.9259 39.3171 26.9637C39.2973 27.0016 39.2672 27.0331 39.2302 27.0548" fill="#C1C1EF"/>
<path d="M40.2669 26.8017C40.1799 26.7939 40.0834 26.7896 39.986 26.7896C39.8268 26.7896 39.7712 26.8217 39.7712 26.8945C39.7712 26.9673 39.8172 26.9985 39.939 26.9985C40.0496 26.9946 40.1595 26.9792 40.2669 26.9525V26.8017ZM40.3129 27.1285L40.3069 27.0817C40.1688 27.1207 40.0267 27.1437 39.8833 27.1501C39.8008 27.1556 39.7185 27.1356 39.6477 27.0929C39.6187 27.0711 39.5957 27.0426 39.5805 27.0098C39.5653 26.977 39.5585 26.9409 39.5607 26.9049C39.5587 26.8607 39.5702 26.8169 39.5936 26.7793C39.6171 26.7417 39.6514 26.7121 39.692 26.6943C39.7855 26.6594 39.8854 26.6446 39.9851 26.6509C40.0668 26.6509 40.1764 26.6553 40.2677 26.6613V26.6509C40.2677 26.5296 40.1877 26.4897 39.9677 26.4897C39.8807 26.4897 39.7798 26.4941 39.6807 26.5036V26.3459C39.7903 26.3372 39.9138 26.3312 40.0155 26.3312C40.1411 26.3201 40.2672 26.3451 40.379 26.4031C40.466 26.4663 40.4851 26.5539 40.4851 26.67V27.1302L40.3129 27.1285Z" fill="#C1C1EF"/>
<path d="M41.5034 27.1285V26.6952C41.5034 26.554 41.4304 26.5028 41.3008 26.5028C41.1932 26.5074 41.0864 26.524 40.9825 26.5522V27.1251H40.7677V26.3451H40.9416L40.9495 26.3936C41.0851 26.3544 41.2249 26.3308 41.366 26.3234C41.4621 26.316 41.5576 26.3444 41.6339 26.4032C41.6655 26.4348 41.6897 26.4731 41.7048 26.5152C41.7198 26.5573 41.7253 26.6022 41.7208 26.6467V27.1225L41.5034 27.1285Z" fill="#C1C1EF"/>
<path d="M42.3331 27.1502C42.2295 27.1582 42.1265 27.129 42.0426 27.0679C41.9982 27.026 41.964 26.9745 41.9426 26.9175C41.9212 26.8604 41.9132 26.7992 41.9192 26.7385C41.915 26.6743 41.9275 26.61 41.9553 26.5519C41.9832 26.4938 42.0255 26.4438 42.0783 26.4066C42.1826 26.3483 42.3016 26.3216 42.4209 26.3295C42.5079 26.3295 42.5992 26.3356 42.6958 26.3442V26.5106C42.6175 26.5037 42.5218 26.4968 42.447 26.4968C42.2401 26.4968 42.1427 26.5617 42.1427 26.7403C42.1427 26.9188 42.2157 26.9803 42.3853 26.9803C42.4956 26.9769 42.6053 26.9636 42.7131 26.9405V27.1008C42.5884 27.1294 42.4611 27.1459 42.3331 27.1502Z" fill="#C1C1EF"/>
<path d="M43.3584 26.4924C43.1514 26.4924 43.0601 26.5574 43.0601 26.7342C43.0601 26.911 43.147 26.9864 43.3584 26.9864C43.5697 26.9864 43.6532 26.9231 43.6532 26.7463C43.6532 26.5695 43.5662 26.4924 43.3584 26.4924V26.4924ZM43.7323 27.0678C43.6187 27.1319 43.4885 27.1606 43.3584 27.1502C43.2277 27.1602 43.097 27.1316 42.9827 27.0678C42.9317 27.0307 42.8914 26.9809 42.8656 26.9235C42.8399 26.866 42.8296 26.8029 42.8357 26.7403C42.8296 26.6774 42.8399 26.614 42.8657 26.5563C42.8914 26.4986 42.9317 26.4485 42.9827 26.4109C43.0971 26.3475 43.2278 26.3191 43.3584 26.3295C43.4883 26.3195 43.6184 26.3479 43.7323 26.4109C43.7829 26.4484 43.8228 26.4982 43.8483 26.5556C43.8737 26.6131 43.8838 26.6761 43.8776 26.7385C43.8837 26.8012 43.8736 26.8644 43.8481 26.9221C43.8227 26.9798 43.7828 27.03 43.7323 27.0678" fill="#C1C1EF"/>
<path d="M45.1351 27.1501C44.9994 27.1586 44.865 27.1197 44.755 27.04C44.6281 26.936 44.5898 26.7739 44.5898 26.5998C44.5853 26.5131 44.6026 26.4268 44.6401 26.3485C44.6776 26.2703 44.7342 26.2026 44.8046 26.1517C44.9412 26.0764 45.0967 26.0418 45.2525 26.052C45.3699 26.052 45.4899 26.0598 45.6212 26.0702V26.26C45.509 26.2505 45.3699 26.2427 45.2621 26.2427C44.9603 26.2427 44.8324 26.3571 44.8324 26.5998C44.8324 26.8424 44.9507 26.9585 45.1733 26.9585C45.3322 26.9533 45.4901 26.9322 45.6447 26.8953V27.0842C45.4775 27.1232 45.3068 27.1456 45.1351 27.1509" fill="#C1C1EF"/>
<path d="M46.2847 26.468C46.1038 26.468 46.0343 26.5322 46.0238 26.6509H46.5456C46.5395 26.5244 46.4656 26.468 46.2847 26.468ZM46.2526 27.1501C46.1356 27.1606 46.0187 27.1299 45.9221 27.0634C45.8779 27.0222 45.8437 26.9715 45.822 26.9152C45.8003 26.859 45.7917 26.7985 45.7969 26.7384C45.7934 26.6762 45.8049 26.614 45.8303 26.5571C45.8557 26.5001 45.8943 26.45 45.943 26.4108C46.0458 26.3493 46.1651 26.3208 46.2847 26.3294C46.4027 26.3221 46.5203 26.3492 46.623 26.4074C46.7483 26.494 46.7587 26.631 46.7604 26.7913H46.0186C46.0238 26.91 46.0873 26.9863 46.3065 26.9863C46.4458 26.9832 46.5848 26.9699 46.7222 26.9464V27.0989C46.5672 27.1282 46.4102 27.1453 46.2526 27.1501Z" fill="#C1C1EF"/>
<path d="M47.7293 27.1285V26.6952C47.7293 26.554 47.6571 26.5028 47.5275 26.5028C47.4199 26.5074 47.3132 26.524 47.2092 26.5522V27.1251H46.991V26.3451H47.1692L47.1771 26.3936C47.3127 26.3543 47.4525 26.3307 47.5936 26.3234C47.6897 26.316 47.7852 26.3444 47.8615 26.4032C47.8931 26.4348 47.9174 26.4731 47.9324 26.5152C47.9474 26.5573 47.9529 26.6022 47.9485 26.6467V27.1225L47.7293 27.1285Z" fill="#C1C1EF"/>
<path d="M48.5659 27.1502C48.5177 27.1549 48.4691 27.1471 48.4248 27.1277C48.3805 27.1083 48.3419 27.0778 48.3128 27.0393C48.2696 26.9686 48.2496 26.8862 48.2554 26.8036V26.5124H48.098V26.3512H48.2554L48.2789 26.1155H48.472V26.3512H48.779V26.5124H48.472V26.762C48.4689 26.8123 48.4763 26.8628 48.4937 26.9102C48.5069 26.9353 48.5277 26.9558 48.5531 26.9687C48.5785 26.9815 48.6073 26.9862 48.6355 26.9821C48.6877 26.9812 48.7398 26.976 48.7911 26.9665V27.1225C48.7171 27.1387 48.6417 27.148 48.5659 27.1502" fill="#C1C1EF"/>
<path d="M48.9919 27.1285V26.3486H49.1659L49.1737 26.3971C49.2983 26.3552 49.4284 26.3316 49.5598 26.3269H49.5877V26.5124C49.5624 26.5124 49.5337 26.5124 49.512 26.5124C49.4087 26.5127 49.3058 26.5261 49.2059 26.5522V27.1268L48.9919 27.1285Z" fill="#C1C1EF"/>
<path d="M50.3834 26.8017C50.2921 26.7939 50.1991 26.7896 50.1017 26.7896C49.9425 26.7896 49.8869 26.8217 49.8869 26.8945C49.8869 26.9673 49.9338 26.9985 50.0556 26.9985C50.1662 26.9945 50.276 26.9791 50.3834 26.9525V26.8017ZM50.4295 27.1285L50.4208 27.0843C50.2828 27.1233 50.1407 27.1462 49.9973 27.1527C49.9145 27.1581 49.8319 27.1381 49.7608 27.0955C49.732 27.0736 49.709 27.0451 49.6938 27.0123C49.6787 26.9795 49.6718 26.9435 49.6738 26.9075C49.6717 26.862 49.6839 26.817 49.7087 26.7788C49.7335 26.7406 49.7696 26.711 49.8121 26.6943C49.9052 26.6602 50.0044 26.646 50.1034 26.6527C50.1852 26.6527 50.2956 26.657 50.3869 26.6631V26.6509C50.3869 26.5296 50.306 26.4898 50.0869 26.4898C49.9999 26.4898 49.8982 26.4941 49.799 26.5036V26.3459C49.9095 26.3372 50.033 26.3312 50.1347 26.3312C50.26 26.3201 50.3859 26.3451 50.4974 26.4031C50.5843 26.4664 50.6043 26.5539 50.6043 26.67V27.1302L50.4295 27.1285Z" fill="#C1C1EF"/>
<path d="M50.8809 26.0227H51.0991V27.1285H50.8809V26.0227Z" fill="#C1C1EF"/>
</svg>
